<?xml version="1.0" encoding="UTF-8"?>
<svg version="1.1" viewBox="0 0 2048 843" width="1280" height="1280" xmlns="http://www.w3.org/2000/svg">
<path transform="translate(0)" d="m0 0h2048v843h-2048z" fill="#FEFEFE"/>
<path transform="translate(417,262)" d="m0 0h15l12 2 6 4 1 1-1 23-3 7-1 2v13l2 26 4 11 10 18 8 16 6 20 4 24 3 29 3 51 8-4 13-12 14-12 14-10 7-3h11l5 6 1 2v7l-6 12-7 8-34 26-3 2 1 3 6 5 4 8v9l-5 14-7 9-11 13-4 7v10l1 9v11l-4 6-9 6-21 6-8 2-8 7-9 11-12 13-8 5-8 2h-17l-19-5-16-8-14-9-21 4h-60l-37-4-27-5-6-3-4-11-1-6 2-4 5-1 4-12 9-13h-3l-4 4-8 12h-2l-1 3-1-8 7-8 13-13 4-6v-3l-12 13-7 7-5 2 2-4 7-8 11-12 7-9-1-5-9 9-11 14-3 3h-2l2-6 7-9 9-10 9-11 2-12-5 5-11 16-6 6-3-1 6-9 13-18 4-4h2l-1-16-5 5-12 17-8 11-3 10-2 10-1 23-2-2-1-24-1-9v-10l1-14 9-44 6-32 2-17v-15l-3-19-4-17-2-18v-14l5-15 6-8 5-4 12-2 168-1 2-5 3-5 1-4v-18l-3-12-5-11v-9l4-8 6-5 12-3z" fill="#B27449"/>
<path transform="translate(280,397)" d="m0 0h15l1 1 80 1 4 10 11 29 17 38 6 19 6 36v7l-28 19-16 12-20 14-16 11-3 2-1 3 8-4 18-13 5-3-2 6-10 8-13 10-16 16-2 3-1 15-5 22-3 3h-44l-1-2 7-27 3-18v-7l-2-1-1 13-5 23-5 18-1 1h-6l-1-3 6-18 6-26-2 1-6 23-8 19-2 2-4-1 6-23 2-17-2-1-1 11-6 22-3 8h-7l1-9 8-26 2-6-3 1-12 35-2 3h-8l-9-2-1-4 8-23-3 1-9 24-5 1-2-1 1-7 8-26 7-28 3-17 1-16v-17l-4-50-4-45-6-28-2-17 28-2z" fill="#FDFDFD"/>
<path transform="translate(227,352)" d="m0 0h157l6 9 3 8v5l-5 1v17l-3 2v-2h-2v-14l3-6-4 2-1 2-2 16h-5v-16l1-6h-4v12l-2 10h-20l-1-1v-23h-3l-1 24-1 1h-5l-1-3 2-19h-4v8l-2 11-3 3h-4l3-15v-6l-2 2-2 11-3 6-5 1 4-14-1-4h-2l-2 14-1 4h-6l1-24-4 1v19l-1 4h-6l1-23 1-3h-4v11l-2 12-2 2-5-1v-16h-3v10l-2 6-4 1v-15l1-2h-3l-1 20-1 2h20v1l-49 3-21 2h-18l7 35 3 18 6 72 1 15v17l-2 23-6 27-5 18h-2l-1-8-4-1-7 10-2 2 1-7 9-13h-3l-4 4-8 12h-2l-1 3-1-8 7-8 13-13 4-6v-3l-12 13-7 7-5 2 2-4 7-8 11-12 7-9-1-5-9 9-11 14-3 3h-2l2-6 7-9 9-10 9-11 2-12-5 5-11 16-6 6-3-1 6-9 13-18 4-4h2l-1-16-5 5-12 17-8 11-3 10-2 10-1 23-2-2-1-24-1-9v-10l1-14 9-44 6-32 2-17v-15l-3-19 1-8 2-4v-24l3-24 4-6 5-1 5 4 4 9 1 4 1 21h5l1-8v-10l-2-12-5-10z" fill="#CD996F"/>
<path transform="translate(429,302)" d="m0 0h9l1 7v30l-16 12 5-1 12-7 2 5v6l-14 11-1 3 10-6 6-5h2l1 6-13 10-4 3-1 3 14-9 6-5h2l3 5-2 4-14 10-7 4-1 3 12-6 11-8 4-1 2 5-1 4-15 9-6 3h-2l-1 4 10-4 17-9 2 1 1 6-14 9-15 6v3l16-8 15-8 3 9v2l-24 13-6 4 2 1 16-8 11-6h2l1 7-7 6-13 8-13 6h-2l-1 4 12-5 24-14 2 1v5l-11 7-20 11-6 2v3l12-5 24-13h2v7l-8 7-15 10-13 6-5 1v2l9-2 16-9 14-9h3v7l-9 6-20 11-6 3-2 3 23-11 13-7h2v8l-10 8-14 8-12 4h-2v2l9-2 16-8 11-6 4-1 1 9v20l-9 6-14 8-14 7-9 6-3 1-3-17-4-17-10-30-11-26-10-24-5-14v-5l9-2 5-5 1-2v-13l-4-16-5-11 1-5 5-8 1-8v-22l20-2z" fill="#FEFEFE"/>
<path transform="translate(417,262)" d="m0 0h15l12 2 6 4 1 1-1 23-3 7-1 2v13l2 26 4 11 10 18 8 16 6 20 4 24 3 29 2 37v11l-4-1v-2l-4-1v-29l-11 6-15 8-8 3h-6v-2l18-7 11-7 8-6 1-8-35 18h-3l2-4 19-10 15-9 1-7-10 5-15 10-11 5h-6v-2l16-7 14-9 9-7 1-1 1-7-28 15-7 3h-3v-3l23-12 13-8v-5l-11 6-16 9-10 3 1-4 17-8 15-10 2-2v-7l-23 12-6 3-3-1 5-5 17-9 7-4h2l-4-10-21 12-10 4v-4l13-6 8-4 8-5-1-6-24 12h-4l1-4 17-9 6-4-1-8-14 9-10 6h-3l1-4 16-10 6-5-2-7-15 11-5 3h-2l1-4 16-12v-6l-14 10-4 1 1-4 13-10-1-9h-2l-12 7-4-1 10-8 6-4 1-18-2-1h2l-1-18-33 3h-6l1 12v10l-2 10-5 8 1 5 5 11 3 14v13l-4 6-5 3h-7l2 8-1 4-6-11-5-1-7 1-18 1h-55l-1-3h-20l1-20 1-2h3l-1 17 4-2 2-15 3-1 1 1v16l5-1 2-12 1-11h4l-1 24-1 2h6l1-23 4-1v22l-1 2h6l2-16 3-3 2 1-1 8-3 9 4-1 3-9 2-9h3l-1 12-3 9 6-1 3-21h4v9l-1 12h5l1-22 1-2h3l1 23 20 1 2-22h4l-1 22h5l1-16 4-4h2l-2 6-1 14h4v-15l1-2 4-1-1-9-6-11-1-1h-157l-6 1 4 7 2 6 1 8v10l-2 8-5 1-1-1-1-21-4-11-5-5-5 1-3 5-3 24v24l-3 8h-2l-4-20-1-11v-14l5-15 6-8 5-4 12-2 168-1 2-5 3-5 1-4v-18l-3-12-5-11v-9l4-8 6-5 12-3z" fill="#B17247"/>
<path transform="translate(442,533)" d="m0 0 3 1-47 47-2 4 5-3 10-9 39-39h2v6l-13 12-13 14-9 11-9 8-12 8-15 11-15 12-9 7-1 2 5-1 11-8 14-12 9-7 2 1v38h3v-16l-1-25 8-6 11-8 4-2 6 52 2 17h2l-2-26-6-44 9-7h4l5 30 4 30 2-1v-8l-7-47-1-4v-7h3l5 13 3 16 4 29 1 8-10 13-11 12-9 11-9 10-9 4h-19l-12-3-17-8-12-8-8-10-8-17-2-9 17-14 10-8 18-18 17-13 14-12 13-11 16-11z" fill="#FDFDFD"/>
<path transform="translate(456,549)" d="m0 0 5 3 7 34 3 12 1 1v-8l-5-27-4-11v-3l5 1 3 9 5 24 3 14-1 5-10 13-6 9 9-5 9-9 5-7 2 3 1 22 2 6-9 6-21 6-8 2-8 7-9 11-12 13-8 5-8 2h-17l-19-5-16-8-14-9-21 4h-60l-37-4-27-5-6-3-4-11-1-6 2-4 5-1 2-7 3-1 6-9 3-1 3 2 1 11-6 18-1 5h6l9-24 4-1-1 6-6 17v3l9 2h8l7-19 6-18 4-1-1 6-8 26-2 9h7l3-11 5-19 2-11 3 1-2 17-6 23 4-1 8-19 6-23 3-1-1 10-6 23-4 11v2h6l7-26 4-21 1-7 3 1-1 14-5 24-4 15h46l4-19 1-5 1-15 6-8 8-7 7-7 12-9 9-7 2-6 12-8h2l-1 7-3 3-2 6-21 21-14 11-9 7 2 9 8 17 8 10 15 9 16 7 9 2h19l9-4 9-10 9-11 7-7 11-14 2-3-1-8-1-5v-7h1l2 11v-11l-4-28-3-13-3-8 1-4 5-2 10 60 2 1-2-23-6-31z" fill="#CD996F"/>
<path transform="translate(1532,415)" d="m0 0h9l15 2 9 6 5 6 3 8-1 9-4 7-4 2 2 4 6 4 5 6 3 12-1 11-6 8-9 6-6 2-11 1h-32l-7-1v-92z" fill="#CD996F"/>
<path transform="translate(227,352)" d="m0 0h157l6 9 3 8v5l-5 1v17l-3 2v-2h-2v-14l3-6-4 2-1 2-2 16h-5v-16l1-6h-4v12l-2 10h-20l-1-1v-23h-3l-1 24-1 1h-5l-1-3 2-19h-4v8l-2 11-3 3h-4l3-15v-6l-2 2-2 11-3 6-5 1 4-14-1-4h-2l-2 14-1 4h-6l1-24-4 1v19l-1 4h-6l1-23 1-3h-4v11l-2 12-2 2-5-1v-16h-3v10l-2 6-4 1v-15l1-2h-3l-2 18-1 1h-5l-1-18-2-1-2 16-3 3h-3v-19l-3 1 1 9-3 7-5 1 2-18h-3v10l-1 7-1 1h-6l1-18h-2l-2 15-3 5-6-1v-18l-2-12-5-10z" fill="#FEFEFE"/>
<path transform="translate(879,438)" d="m0 0 12 1 10 4 9 8 6 12 1 4v18l-5 10-8 8-8 5-7 2h-9l-12-5-3-2v30h-10l-10-1-1-45v-47l1-1h19l1 4 9-3z" fill="#CD996F"/>
<path transform="translate(1332,438)" d="m0 0 10 1 5 2h5l3-2h18v69l-4 1-15-1-2-3-5 1-10 4h-8l-11-4-9-7-6-9-2-5-1-16 4-13 7-9 10-6 5-2z" fill="#CD996F"/>
<path transform="translate(1125,439)" d="m0 0h16l10 3 3-3h18v70l-18-1-2-3-6 1-10 4h-8l-11-4-9-7-6-8-2-6v-22l5-10 9-9z" fill="#CD996F"/>
<path transform="translate(651,416)" d="m0 0h40l10 3 9 6 7 11 1 4v16l-4 8-5 5-8 5-8 3-20 3-1 28h-21z" fill="#CD996F"/>
<path transform="translate(1616,439)" d="m0 0h17l12 5 9 9 6 12 1 5v14l-5 10-7 7-13 7-4 1h-15l-12-5-8-7-6-7-2-5-1-6v-9l4-13 9-10 9-6z" fill="#CD996F"/>
<path transform="translate(1835,439)" d="m0 0h16l9 3 9 7 6 8 4 11 1 6v9l-5 10-6 7-9 6-9 3h-15l-12-5-8-7-5-6-3-7-1-6v-8l4-13 7-9 11-7z" fill="#CD996F"/>
<path transform="translate(1251,413)" d="m0 0h11l11 4 9 7 6 7v3l-11 8h-5l-8-6-4-1h-7l-5 5 2 6 15 7 16 8 7 7 3 6 1 4v9l-3 7-7 8-10 6-7 2h-15l-11-4-10-9-4-5-2-5 8-5 5-2h5l7 8 5 2 10-1 5-5 1-5-6-5-20-9-9-6-6-8-2-6v-10l3-8 8-8 10-5z" fill="#BF865B"/>
<path transform="translate(953,439)" d="m0 0h17l10 4 7 6 6 10 3 8 1 12-2 2-46 2 4 6 7 2 13-1h10l7 6-1 5-7 5-9 3-11 1-11-2-13-7-8-9-4-10v-15l4-10 6-8 8-6z" fill="#CD996F"/>
<path transform="translate(729,439)" d="m0 0h20l1 1 1 41 3 8h11l5-3 4-5 1-8 1-34h21v69l-2 1-19-1v-7l-6 3-6 4-7 2h-7l-10-4-7-7-4-11-1-20v-28z" fill="#BF875C"/>
<path transform="translate(1425,438)" d="m0 0 11 1 9 5 6 7 2 5 1 6v46h-20l-1-16v-12l-1-15-2-5-4-2-9 1-7 7-1 2-1 17-1 23h-20l-1-8v-60l2-1h19l1 9 7-6 5-3z" fill="#CD996F"/>
<path transform="translate(214,502)" d="m0 0h6l1 2 3 38v17l-2 23-6 27-5 18h-2l-1-8-4-1-7 10-2 2 1-7 9-13h-3l-4 4-8 12h-2l-1 3-1-8 7-8 13-13 4-6v-3l-12 13-7 7-5 2 2-4 7-8 11-12 7-9-1-5-9 9-11 14-3 3h-2l2-6 7-9 9-10 9-11 2-12-5 5-11 16-6 6-3-1 6-9 13-18 4-4h2l-1-16-5 5-12 17-8 11-3 10-2 10-1 23-2-2-1-24-1-9v-10l1-14 9-44 2-1h14l-1 5-9 17-1 5 1 1 1-4 11-18z" fill="#B27348"/>
<path transform="translate(447,340)" d="m0 0 10 20 10 18 7 19 5 24 4 37 2 37v11l-4-1v-2l-4-1v-29l-11 6-15 8-8 3h-6v-2l18-7 11-7 8-6 1-8-35 18h-3l2-4 19-10 15-9 1-7-10 5-15 10-11 5h-6v-2l16-7 14-9 9-7 1-1 1-7-28 15-7 3h-3v-3l23-12 13-8v-5l-11 6-16 9-10 3 1-4 17-8 15-10 2-2v-7l-23 12-6 3-3-1 5-5 17-9 7-4h2l-4-10-21 12-10 4v-4l13-6 8-4 8-5-1-6-24 12h-4l1-4 17-9 6-4-1-8-14 9-10 6h-3l1-4 16-10 6-5-2-7-15 11-5 3h-2l1-4 16-12v-6l-14 10-4 1 1-4 13-10-1-9-4-1 2-3h3v3l5-2z" fill="#C0875C"/>
<path transform="translate(1690,438)" d="m0 0h10l9 3 8 6 4 6 1 4-13 4h-5l-2-4h-9l1 5 12 5 12 6 5 6 3 8-1 7-6 8-10 6-6 2h-10l-10-3-8-6-5-6-1-5 6-3 6-2 5 1 4 5 2 1h10l1-6-5-2-17-8-6-5-4-8v-9l4-7 7-6z" fill="#CD996F"/>
<path transform="translate(1766,438)" d="m0 0h7l10 3 9 6 6 6-1 3-11 6-5-1-7-3h-8l-8 5-3 6v9l4 8 6 4h9l7-3 4-1 13 6 1 2-7 8-8 5-11 3-12-1-10-4-10-8-6-9-2-10v-9l4-12 6-8 8-6 9-4z" fill="#CD996F"/>
<path transform="translate(1051,438)" d="m0 0h6v20l-1 1-12 2-9 6-5 7-1 3-1 24-1 7h-20v-69h21l1 11 3-1 6-7 6-3z" fill="#CD996F"/>
<path transform="translate(208,345)" d="m0 0h137l9 1v2l19 2-6 3h-140l-6 1 4 7 2 6 1 8v10l-2 8-5 1-1-1-1-21-4-11-5-5-5 1-3 5-3 24v24l-3 8h-2l-4-20-1-11v-14l5-15 6-8 5-4z" fill="#AE6E43"/>
<path transform="translate(864,481)" d="m0 0 4 2 5 6 3 1h7l7-3 6-5h20v6l-6 9-9 8-8 4-4 1h-9l-12-5-3-2v30h-10l-10-1v-50z" fill="#BF865B"/>
<path transform="translate(1532,415)" d="m0 0h9l15 2 9 6 5 6 3 8-1 9-4 7-4 3-9-1-4-5-1-10-2-4-18-1v15l-10 7-5 2-3 1-3 4-1-12v-36z" fill="#AE6E43"/>
<path transform="translate(810,415)" d="m0 0h21v93h-21z" fill="#CD996F"/>
<path transform="translate(651,416)" d="m0 0h40l10 3 9 6 7 11 1 4v10l-1 2-6 1-14-2-1-7-2-5-8-2h-13l-1 18h-3l-7 1-8 2-1 12h-1l-1-24z" fill="#BF865B"/>
<path transform="translate(214,531)" d="m0 0 2 1v16l-6 5-12 17-6 9 4-2 6-7 10-15 4-2-1 12-9 11-7 7-10 13-2 5 6-5 11-14 8-8 2 2-1 6-14 15-7 8-6 8 8-6 11-11 5-6 1 4-7 9-16 16-1 5 1 2h2l2-5 8-11 4-2 2 2-10 15-3 10-6 2-1 3h-2l-6-24-1-5v-30l3-26h1v18l1 9 1 24 1-21 4-18 6-9 11-15 8-11z" fill="#C1895E"/>
<path transform="translate(297,366)" d="m0 0h4l-1 24-1 2h6l1-23 4-1v22l-1 2h6l2-16 3-3 2 1-1 8-3 9 4-1 3-9 2-9h3l-1 12-3 9 6-1 3-21h4v9l-1 12h5l1-22 1-2h3l1 23 20 1 2-22h4l-1 22h5l1-16 4-4h2l-2 6-1 14h4v-15h4l1 2 1 13 3-4 1-12 4-2 1 1v13l-4 6-5 3h-7l2 8-1 4-6-11-5-1-7 1-18 1h-55l-1-3h-20l1-20 1-2h3l-1 17 4-2 2-15 3-1 1 1v16l5-1 2-12z" fill="#BF865B"/>
<path transform="translate(1509,482)" d="m0 0h20v7h11l10-1 6-4 2-2h21v10l-6 8-9 6-6 2-11 1h-32l-6-1z" fill="#BF875C"/>
<path transform="translate(1301,481)" d="m0 0h21l8 8 3 1h7l7-3 6-5h19v27l-18-1-2-3-5 1-10 4h-8l-11-4-9-7-6-9-2-5z" fill="#BF865B"/>
<path transform="translate(1100,481)" d="m0 0h21l2 1 3 5 5 3h9l7-4 4-5 20 1v26h-17l-2-3-6 1-10 4h-8l-11-4-9-7-6-8-2-6z" fill="#BF865B"/>
<path transform="translate(1068,439)" d="m0 0h20v69l-2 1-18-1-1-3v-65z" fill="#CD996F"/>
<path transform="translate(1251,413)" d="m0 0h11l11 4 9 7 6 7v3l-11 8h-5l-8-6-4-1h-7l-5 5v5h-2l-2 4-3 2h-8l-7-6v-10l3-8 8-8 10-5z" fill="#BF865C"/>
<path transform="translate(1590,482)" d="m0 0h20l5 5 5 3h8l6-3 4-5h22l-1 7-6 8-7 6-10 5-4 1h-15l-12-5-8-7-6-7z" fill="#BF865B"/>
<path transform="translate(1809,482)" d="m0 0h21l6 7 3 1h8l6-3 6-5h20l-1 6-6 9-9 7-8 4-4 1h-15l-12-5-8-7-5-6-2-4z" fill="#BF865B"/>
<path transform="translate(472,527)" d="m0 0 10 2 16 8 9 6 4 4-1 13-4 10-14 15-6 8-1 2-4-1-7-37v-3l4 2 3 5 3 16h2l-1-17 8 6 4 2-5-8-6-3-5-6v-5l9 9-1-6-9-12-8-8z" fill="#FEFEFE"/>
<path transform="translate(545,473)" d="m0 0h6l2 3-1 9-6 9-8 7-11 7-13 10-13 9-6-1-7-4 6-7 12-12 8-7 12-11 10-7z" fill="#FEFEFE"/>
<path transform="translate(1228,444)" d="m0 0 4 5 1 1h8l5-5 4 1 15 7 16 8 7 7 3 6 1 4v9l-1-4-20-1-6-7-24-11-9-7-5-8z" fill="#CD996F"/>
<path transform="translate(1735,482)" d="m0 0h20l5 5 5 3h9l7-3 4-1 13 6 1 2-7 8-8 5-11 3-12-1-10-4-10-8-6-9z" fill="#BF875C"/>
<path transform="translate(1722,481)" d="m0 0h2l2 6-1 7-6 8-10 6-6 2h-10l-10-3-8-6-5-6-1-5 6-3 6-2 5 1 4 5 2 1h10l1-6h-2l2-4z" fill="#BF875C"/>
<path transform="translate(927,481)" d="m0 0h9l12 2 5 6 7 2 13-1h10l7 6-1 5-7 5-9 3-11 1-11-2-13-7-8-9-3-6z" fill="#BF875C"/>
<path transform="translate(376,396)" d="m0 0 5 1 3 4 4 7 2 2 8 21 11 25 10 27 6 20-1 3v-2h-8l-1 2-3-15-7-20-13-28-10-26-6-17-25-1v-1l18-1z" fill="#CD996F"/>
<path transform="translate(469,409)" d="m0 0h2l6 33 2 17 1 23v20h-3v-29l-11 6-15 8-8 3h-6v-2l18-7 11-7 8-6 1-8-35 18h-3l2-4 19-10 15-9 1-7-10 5-15 10-11 5h-6v-2l16-7 14-9 9-7 1-1 1-7-28 15-7 3h-3v-3l23-12 13-8v-5l-11 6-16 9-10 3 1-4 17-8 15-10 2-2-1-8z" fill="#CD996F"/>
<path transform="translate(456,549)" d="m0 0 5 3 7 34 3 12 1 1v-8l-5-27-4-11v-3l5 1 3 9 5 24 3 14-1 5-10 13-7 9h-2l-2-7-5-36-3-13-3-8 1-4 5-2 10 60 2 1-2-23-6-31z" fill="#FEFEFE"/>
<path transform="translate(205,346)" d="m0 0 4 1 1 4 17 1v1l-6 1 4 7 2 6 1 8v10l-2 8-5 1-1-1-1-21-4-11-5-5-5 1-3 5-3 24v24l-3 8h-2l-4-20-1-11v-14l5-15 6-8z" fill="#C1895E"/>
<path transform="translate(450,546)" d="m0 0h2v6l-9 6-4 4h-2l-2 4-5 5 2 2-7 5 6 44 2 26h-4l-5-43-2-15v-11l-13 10-9 6 1 36-1 5h-3l-1-15v-23l-8 6-25 20-4 2-4-1 5-6 12-9 14-11 20-14 10-8 11-13 5-2 6-4z" fill="#C1895E"/>
<path transform="translate(729,439)" d="m0 0h20l1 1 1 44-1-2h-21l-1-14v-28z" fill="#CD996F"/>
<path transform="translate(776,439)" d="m0 0h21v69h-1v-27l-9 1h-13l1-9z" fill="#CD996F"/>
<path transform="translate(810,415)" d="m0 0h21v38l-1 5-11 2-7-2-1 2-1-26z" fill="#BF865B"/>
<path transform="translate(511,547)" d="m0 0 1 4h2l1-2 4 7-1 7-5 10-12 14-7 10-1 2v10l1 9v11l-3 5-3-1-1-4-1-22-1-2-7 9-8 8-9 4 2-5 12-15 4-4v2h3l-1-10 4 1 2-5 18-20 4-10z" fill="#C0885D"/>
<path transform="translate(1333,457)" d="m0 0h8l6 3 4 4 2 6v10l-4 6-5 4-4 1h-7l-6-3-5-8-1-3v-7l4-7 6-5z" fill="#FEFEFE"/>
<path transform="translate(1132,457)" d="m0 0h8l7 4 4 6 1 3v9l-4 7-5 4-3 1h-9l-5-3-3-3-3-10 1-8 7-8z" fill="#FEFEFE"/>
<path transform="translate(876,457)" d="m0 0h8l7 4 4 5 1 3v12l-7 8-6 2h-7l-5-3-6-8v-11l6-9z" fill="#FEFEFE"/>
<path transform="translate(1840,457)" d="m0 0h7l6 3 5 6 1 2v13l-7 8-5 2h-8l-5-3-6-8v-11l5-8z" fill="#FEFEFE"/>
<path transform="translate(1621,457)" d="m0 0h7l6 3 5 6 1 3v12l-7 8-5 2h-8l-6-4-5-8v-10l6-9z" fill="#FEFEFE"/>
<path transform="translate(214,531)" d="m0 0 2 1v16l-6 5-12 17-6 9 4-2 6-7 10-15 4-2-1 12-9 11-7 7-11 14-3 2v-17l3-15 6-9 11-15 8-11z" fill="#FEFEFE"/>
<path transform="translate(390,333)" d="m0 0 2 1 4-1 2 4-5 8 1 5 5 11 2 8v5l-3 3-1 11-5 5-1-14-3-2v-2l4-1-1-9-6-11-1-1-15-1-3-2-12-2v-2l-137-1v-1l168-1 2-5z" fill="#C38B61"/>
<path transform="translate(418,538)" d="m0 0 2 1-3 4 4 1 7-1-4 4-11 8-10 9-11 9-14 11-4 1 2-5 4-5 1-5-14 9-13 10-15 10h-3l1-4 12-8 17-12 18-13 15-11 18-12z" fill="#BF865B"/>
<path transform="translate(651,416)" d="m0 0h40l10 3 9 6 6 9-1 4-4-6-2-1h-22l-15-2h-10l-9 1-1 2z" fill="#AE6D42"/>
<path transform="translate(533,503)" d="m0 0h3v2l7-2-2 4-32 24 1 3 6 5 4 8v9h-2l-3-6-3 1v-4l-4-2-8-6-15-8 2-1-1-8h3l8 4 6-1 19-14z" fill="#C0885D"/>
<path transform="translate(379,570)" d="m0 0h2l-1 7-3 3-2 6-21 21-14 11-11 9-2-1-2 6h-1v-12l5-6 8-7 7-7 12-9 9-7 2-6z" fill="#CC986D"/>
<path transform="translate(542,468)" d="m0 0h11l5 6 1 2v7l-6 12-7 8-6 2h-4l-1-3 9-7 6-8 2-6-1-7h-6l-12 7-10 8-15 14-8 6-4 1-1-6 12-11 14-12 14-10z" fill="#CC986E"/>
<path transform="translate(1251,413)" d="m0 0h11l11 4 9 7 5 5-1 2-3-2-4 2h-9l-10-2-13-2-5-1h-7l-5 2 2-4 8-7z" fill="#AF6F44"/>
<path transform="translate(451,552)" d="m0 0 1 3-5 3 2 9 3 9 4 27 1 7v13l-2-2-2-11-1-1-4-28-5-15-2-2v7l5 30 3 21v8l-3 2-1-1-7-50-1-10-7 1v-3l6-5 3-3 8-7z" fill="#B77A4F"/>
<path transform="translate(1067,482)" d="m0 0h21v26l-2 1-18-1-1-3z" fill="#AF6F44"/>
<path transform="translate(1508,424)" d="m0 0h1l1 9 4-2 10-1 6 5v15l-10 7-5 2-3 1-3 4-1-12z" fill="#BF865B"/>
<path transform="translate(1530,468)" d="m0 0h17l7 2 3 4v10l-5 4-2 1-10 1h-9l-1-1z" fill="#FEFEFE"/>
<path transform="translate(1433,481)" d="m0 0 21 1v26h-20l-1-16z" fill="#AE6E43"/>
<path transform="translate(953,439)" d="m0 0h17l10 4 7 6 5 8-1 3-4-5-7-1-20-1-8-1-9-3-7 3-2 1 2-4 8-6z" fill="#BF875C"/>
<path transform="translate(673,436)" d="m0 0h13l8 3 2 4v9l-4 5-4 2h-15l-1-1v-21z" fill="#FEFEFE"/>
<path transform="translate(207,355)" d="m0 0 5 1 4 5 4 11v16l-1 4h-5v-20l-7 3-3 8-2 14-2 2-2-6 1-14 2-17 4-6z" fill="#FEFEFE"/>
<path transform="translate(212,586)" d="m0 0h2v4l3 1v2h2l-1 8-7 26h-2l-1-8-4-1-7 10-2 2 1-7 9-13h-3l-4 4-8 12h-2l-1 3-1-8 7-8 13-13 4-6v-6z" fill="#C1895F"/>
<path transform="translate(1567,431)" d="m0 0h3l2 2 1 10-4 9-5 4-9-1-4-5-1-10-2-5 2-3h13z" fill="#BF865B"/>
<path transform="translate(1835,439)" d="m0 0h16l9 3 9 7 6 8 3 7v6l-2-3-4-8-6-5-7-2-19-1-7-2-2-2-5-1-5 2 1-3 10-5z" fill="#C0875C"/>
<path transform="translate(455,373)" d="m0 0 4 4 9 20 2 8-1 6-9 6-15 8-7 2v-3l8-5 14-8 6-3h2l-4-10-21 12-10 4v-4l13-6 8-4 8-5-1-6-24 12h-4l1-4 17-9 6-4-1-8-2-1z" fill="#CC986E"/>
<path transform="translate(1616,439)" d="m0 0h17l12 5 9 9 2 3-1 3-4-5-28-2-9-2-1-4h-2v-2l-9 4 1-3 10-5z" fill="#C0875C"/>
<path transform="translate(297,366)" d="m0 0h4l-1 24-1 2h6l1-23 4-1v22l-1 2h6l2-16 3-3 2 1-1 8-3 9 4-1 3-9 2-9h3l-1 12-2 7h-2l-1 3-2 1-9 1h-15l-2-1v-18z" fill="#B4764B"/>
<path transform="translate(1077,416)" d="m0 0h25l-3 5-9 9-2 3-5 1h-12l-1-3z" fill="#BF865B"/>
<path transform="translate(425,270)" d="m0 0h11l7 2-1 3-12 4-24 3h-6l-3-5 2-4 10-2z" fill="#FEFEFE"/>
<path transform="translate(1387,482)" d="m0 0h20v26l-3-1-1-3-10-5-1-4-5 1z" fill="#AD6C41"/>
<path transform="translate(397,591)" d="m0 0 5 1-2 3 1 36-1 5h-3l-1-15v-23l-8 6-25 20-4 2-4-1 5-6 12-9 14-11z" fill="#C38B60"/>
<path transform="translate(1558,482)" d="m0 0h21v10l-6 8-2 2-3-1-1-2-9-1-4-10 2-4z" fill="#AE6E43"/>
<path transform="translate(1509,482)" d="m0 0h20v7l6 2-4 2-4 4-15 5-2 5h-1z" fill="#AD6C41"/>
<path transform="translate(864,504)" d="m0 0h1v29h-10l-10-1v-17l5-1 12 1 1 1z" fill="#CD996F"/>
<path transform="translate(1008,482)" d="m0 0h20v19l-1 7h-2l-1-6-6-2-4-4-5-1v10h-1z" fill="#AE6E43"/>
<path transform="translate(439,284)" d="m0 0h4l-1 8-2 1-27 3h-15l-6-4v-5l4 1h17l23-3z" fill="#FEFEFE"/>
<path transform="translate(374,413)" d="m0 0 1 3-5 10-9 12-11 12-16 16-4 1 3-6 14-15 10-10 8-10 1-3-14 14-6 2v-3l12-11 4-3 6-2z" fill="#B5774D"/>
<path transform="translate(238,373)" d="m0 0 3 1-2 18 6-1 2-17h3v12l-2 6 5-2 2-6-1-10 4-1 1 1v21l-11 3-3 1h-10l-2-3 3-12 1-10z" fill="#C0875C"/>
<path transform="translate(533,503)" d="m0 0h3v2l7-2-2 4-32 24-7-2-2-2 18-13z" fill="#B27348"/>
<path transform="translate(864,481)" d="m0 0 4 2 5 6 4 2-4 1-20 4h-7l-1-1v-13z" fill="#AD6D42"/>
<path transform="translate(406,532)" d="m0 0h2l1 5-9 7-18 13-14 11-15 11-6 4h-2l2-4 13-11 13-10 11-8 10-8 9-7h2z" fill="#B6794E"/>
<path transform="translate(213,511)" d="m0 0h2v10l-3 7-8 10-12 17-3 2 2-10 7-14 8-11z" fill="#FEFEFE"/>
<path transform="translate(652,482)" d="m0 0h20v26l-3-1v-10l-2-2h-11l-2 1-1 9h-1z" fill="#AE6D42"/>
<path transform="translate(1530,435)" d="m0 0h18l2 3v10l-3 2h-15l-2-1z" fill="#FEFEFE"/>
<path transform="translate(787,481)" d="m0 0h9v19h-1l-1-5-17-2-7-4 1-4 2-3z" fill="#AD6C41"/>
<path transform="translate(542,468)" d="m0 0h11l5 6 1 2v7l-6 12-7 8-6 2h-4l-1-3 9-7 6-8 2-6-1-7-8-1 1-3h-2z" fill="#CD986E"/>
<path transform="translate(404,548)" d="m0 0 3 1-13 11-19 14-9 6-19 14-8 5h-3l1-4 12-8 17-12 18-13 15-11z" fill="#B3744A"/>
<path transform="translate(379,570)" d="m0 0h2l-1 7-3 3-2 6-10 10-3-1-10 3-10 6 2-4 12-9 9-7 2-6z" fill="#C1895E"/>
<path transform="translate(1269,481)" d="m0 0 20 1 2 1v8l-6 8h-2v-3l-9-2-5-4v-2h-2z" fill="#AE6E43"/>
<path transform="translate(371,370)" d="m0 0h4l-1 22h5l1-16 4-4h2l-2 6-1 17h-9l-1 1h-20l-5-3v-1h21z" fill="#B3754A"/>
<path transform="translate(811,482)" d="m0 0h19v13l-4 2h-7l-7-2-1 3z" fill="#AD6C41"/>
<path transform="translate(1425,438)" d="m0 0 11 1 9 5 6 7 1 6-4-5-13-1-9-2-7-7 1-3z" fill="#C0875C"/>
<path transform="translate(880,439)" d="m0 0h11l10 4 9 8 1 4-3-2v-2h-23l-8-1 1-4 3-3z" fill="#C0875C"/>
<path transform="translate(439,564)" d="m0 0h1l7 44 2 14v8l-3 2-1-1-7-50-1-10-4-1 2-2h3z" fill="#B77A4F"/>
<path transform="translate(1353,482)" d="m0 0h19v26h-1l-1-7-5-5v-2l-9-2-4-4v-2l-3 1 1-3z" fill="#AD6C41"/>
<path transform="translate(1690,438)" d="m0 0h10l9 3 8 6 2 3-1 3v-2h-12l-12-4-2-2-9-2 1-3z" fill="#C0885D"/>
<path transform="translate(830,482)" d="m0 0h1v26h-16l-4-1v-9l1-3 14 1 3-2z" fill="#BF865B"/>
<path transform="translate(266,374)" d="m0 0 3 1v18l5-1 1-5h1v7l-1 2h20v1l-51 3 1-2 13-4 3-2h2l2-15z" fill="#CE9A70"/>
<path transform="translate(372,431)" d="m0 0h2l1 4-3 5-11 12-7 8-11 9-5 4-4-1 6-7 14-13 5-4 11-14z" fill="#B4764C"/>
<path transform="translate(896,482)" d="m0 0h20v6l-5 8-10-1-4-4v-2h-2l-2-5z" fill="#AF6F44"/>
<path transform="translate(1859,482)" d="m0 0h20l-1 6-6 9-6 5-3-1 2-4-2-7-4-4h-3v-2z" fill="#AF6F44"/>
<path transform="translate(656,494)" d="m0 0h11l3 3v11h-18l1-12z" fill="#BE855A"/>
<path transform="translate(414,592)" d="m0 0 3 1 3 22 2 18v19h-4l-3-39-1-10z" fill="#C28A60"/>
<path transform="translate(212,574)" d="m0 0 2 2-1 6-14 15-7 8-6 7h-1v-8l8-8 11-14z" fill="#FEFEFE"/>
<path transform="translate(376,443)" d="m0 0 3 1-1 5-10 12-7 8-10 8-7 1 1-4 11-8 10-10 9-12z" fill="#CB966C"/>
<path transform="translate(810,415)" d="m0 0h21l-1 15-4-3-11-2-2 2-1 6h-1z" fill="#AD6C41"/>
<path transform="translate(406,594)" d="m0 0 2 1 2 22 1 12v24h-4l-1-30-1-13v-15z" fill="#BB8056"/>
<path transform="translate(471,551)" d="m0 0 5 2-2 1 5 24 2 11 1 15h-3l-8-41-2-7 1-4z" fill="#B5774D"/>
<path transform="translate(961,456)" d="m0 0 9 2 6 5v3h-27l1-5 6-4z" fill="#FEFEFE"/>
<path transform="translate(729,482)" d="m0 0h21l2 3v3l-5 2-7 3-6-1-1-1-2 2-2-5z" fill="#AE6E43"/>
<path transform="translate(423,592)" d="m0 0h1l2 8v-6h1l4 28 2 26h-4l-5-43z" fill="#C0875C"/>
<path transform="translate(403,524)" d="m0 0 2 1-1 4-21 16-10 8-11 9-7 5h-2l1-4 15-12 12-9 16-13z" fill="#B87B51"/>
<path transform="translate(432,583)" d="m0 0 2 1 7 50-1 3-3-1-2-11-4-30-1-10z" fill="#B97D53"/>
<path transform="translate(461,549)" d="m0 0h5l-3 1 5 14 5 27v8l-2 1-3-9-7-35-2-6z" fill="#B97D52"/>
<path transform="translate(400,374)" d="m0 0 2 1v13l-4 6-3 2-5-1-3-4v-14h4l1 2 1 13 3-4 1-12z" fill="#B27449"/>
<path transform="translate(484,609)" d="m0 0 2 2 1 5v10l-4 5-10 5h-3l-1-3 10-9 4-6-5 1 1-4z" fill="#FEFEFE"/>
<path transform="translate(1766,438)" d="m0 0h7l10 3 9 6-1 2-3-2-7 2-8-1-9-6-4-1v-2z" fill="#C0885D"/>
<path transform="translate(1590,482)" d="m0 0h20l8 8-3 1-12 1-8-4-4-3z" fill="#AE6D42"/>
<path transform="translate(1638,482)" d="m0 0h22v5h-4l-1 2h-2l-1 2-2-1-1 2-8-1-5-3z" fill="#AD6D42"/>
<path transform="translate(1388,439)" d="m0 0h19v9l-8-1-5 2-1-3h-4l-1 10h-1v-16z" fill="#C0885D"/>
<path transform="translate(298,614)" d="m0 0 3 1-1 9-6 28-2 4-4-1 6-25 3-15z" fill="#B6784E"/>
<path transform="translate(1809,482)" d="m0 0h21l6 7-1 3-13-1-9-5z" fill="#AE6D42"/>
<path transform="translate(474,480)" d="m0 0h2l-1 5-10 8-16 9-10 4h-5l1-3 17-7 10-6 11-9z" fill="#B6794E"/>
<path transform="translate(385,456)" d="m0 0 2 4-15 14-10 9-3 2h-6l4-5 13-10 12-12z" fill="#B97D53"/>
<path transform="translate(278,607)" d="m0 0 3 1-1 14-5 24-2 7h-3l-1 2 1-8 5-21z" fill="#B77A50"/>
<path transform="translate(1009,495)" d="m0 0h5l5 5 6 2v6h-15l-2-1z" fill="#BE855A"/>
<path transform="translate(1703,482)" d="m0 0h18v4l-5 5-5 1-7-1-1-5h-2z" fill="#AD6C41"/>
<path transform="translate(469,431)" d="m0 0h3v3l-6 5-25 13-6 1v-3l23-12z" fill="#B6794E"/>
<path transform="translate(269,615)" d="m0 0h2l-1 10-6 23-3 8h-2l-1 2-2-1 1-6 6-15 5-20z" fill="#B67A4F"/>
<path transform="translate(473,455)" d="m0 0h2v4h-2v2l-33 17h-3l2-4 19-10z" fill="#C48D62"/>
<path transform="translate(237,619)" d="m0 0h2l-2 9-8 21-4 3h-3l2-6 6-13 4-12z" fill="#B77B50"/>
<path transform="translate(1388,495)" d="m0 0h4l2 4 10 5 1 4h-18v-12z" fill="#BF865B"/>
<path transform="translate(468,420)" d="m0 0h2l1 4-13 8-14 8-10 3 1-4 17-8 15-10z" fill="#C28A60"/>
<path transform="translate(210,594)" d="m0 0h2l-2 7-4 5h-2l-2 4-4 4-8 12h-2l-1 3-1-8 7-8 13-13z" fill="#B87B50"/>
<path transform="translate(472,496)" d="m0 0 2 1-8 7-17 8-11 4h-3l2-4 14-6 16-8z" fill="#B6794E"/>
<path transform="translate(473,443)" d="m0 0 1 4-19 12-14 8-9 1v-2l16-7 14-9 7-5z" fill="#BD8358"/>
<path transform="translate(214,548)" d="m0 0h2v5l-5 5-11 16-6 6-3-1 6-9 13-18z" fill="#B77B50"/>
<path transform="translate(285,620)" d="m0 0h3l-1 14-4 20-2 4h-3l1-8z" fill="#B77A4F"/>
<path transform="translate(203,608)" d="m0 0 3 2-10 15-3 10h-4v-9l10-15z" fill="#FEFEFE"/>
<path transform="translate(482,458)" d="m0 0h1l2 37v11l-4-1-1-39h1z" fill="#CD996F"/>
<path transform="translate(214,497)" d="m0 0h1v5l-7 10-7 11-5 9-2-1 3-9 11-20z" fill="#FDFDFC"/>
<path transform="translate(255,618)" d="m0 0 3 1-2 17-5 19-3 1-2 2 1-7 6-22z" fill="#BB8156"/>
<path transform="translate(416,504)" d="m0 0h8l2 3 1 6v10l-4-1-4-4-1-9z" fill="#AF6F44"/>
<path transform="translate(210,590)" d="m0 0 1 4-7 9-17 17-2-2 1-4 13-12z" fill="#FEFEFE"/>
<path transform="translate(473,469)" d="m0 0h2l-1 5-10 6-16 8-5 2h-6v-2l18-7 11-7z" fill="#C79166"/>
<path transform="translate(397,597)" d="m0 0 2 4 1 3 1 16v11l-1 5h-3l-1-15v-23z" fill="#BB7F54"/>
<path transform="translate(1070,499)" d="m0 0 7 1 9 2v6h-18z" fill="#BF865B"/>
<path transform="translate(246,618)" d="m0 0h3l-1 6-8 26-3 1-2 2 1-7 9-27z" fill="#B6794E"/>
<path transform="translate(388,467)" d="m0 0h3v4l-14 11-8 7-5 1 2-4 9-8h2v-2z" fill="#B87C51"/>
<path transform="translate(374,413)" d="m0 0 1 3-5 10-1-2-3 1v-2l-14 14-6 2v-3l12-11 4-3 6-2z" fill="#B87B51"/>
<path transform="translate(306,625)" d="m0 0h2l-1 11-4 18-2 3h-4l4-16 4-15z" fill="#BA7E53"/>
<path transform="translate(465,409)" d="m0 0h3l-1 4-22 12-7 2v-3l8-5 14-8z" fill="#C1885D"/>
<path transform="translate(416,506)" d="m0 0 3 3 1 9 4 4h2l2-2 2 11-5 1v-6l-2 1-2 11h-1l-4-27z" fill="#C38B60"/>
<path transform="translate(1434,497)" d="m0 0h6l3 3 4 2 1 4 6 1v1h-20z" fill="#C0875C"/>
<path transform="translate(542,468)" d="m0 0h11l5 6 1 2v7l-4 1-2 1-1-9-1-2-8-1 1-3h-2z" fill="#C1885D"/>
<path transform="translate(1152,482)" d="m0 0h19v5l-5 2h-9l-3-1v-2l-4-2z" fill="#AD6C41"/>
<path transform="translate(457,384)" d="m0 0h2v5l-22 12h-4l1-4 17-9z" fill="#B77A4F"/>
<path transform="translate(378,607)" d="m0 0 3 1-4 5-14 11-4 2-4-1 5-6 11-8 5-2z" fill="#CB966C"/>
<path transform="translate(1735,482)" d="m0 0h20l3 3-1 2-5 2h-7l-10-5z" fill="#AD6D42"/>
<path transform="translate(315,627)" d="m0 0h3l-1 8-4 19-2 3h-3l1-7 5-21z" fill="#B87C51"/>
<path transform="translate(451,373)" d="m0 0 4 1-1 3-12 8-10 6h-3l1-4 16-10z" fill="#B87C51"/>
<path transform="translate(203,399)" d="m0 0 5 5 3 20 2 9v7l-2-4v-3l-2-1-1-9-3-7-2-9z" fill="#C28A5F"/>
<path transform="translate(1355,439)" d="m0 0h17v9h-5l-8-4v-2l-5-1z" fill="#C1885E"/>
<path transform="translate(396,565)" d="m0 0 2 1-2 4-18 14-4 1 2-5 4-4z" fill="#B27348"/>
<path transform="translate(460,396)" d="m0 0h3v3l-24 13-6 2v-4l13-6 8-4z" fill="#BD8358"/>
<path transform="translate(1302,482)" d="m0 0h16l2 4-1 3-7 1-9-5z" fill="#AD6C41"/>
<path transform="translate(434,321)" d="m0 0 3 1-4 6 1 7-6 5-3-1 1-4 2-4h-2l2-5z" fill="#B97D52"/>
<path transform="translate(511,541)" d="m0 0h6l3 6v9h-2l-3-6-3 1v-4l-4-2-1-3z" fill="#B27349"/>
<path transform="translate(219,628)" d="m0 0h3l-1 6-6 17-3 2v-8l6-16z" fill="#C58E64"/>
<path transform="translate(423,592)" d="m0 0h1l2 8v-6h1l3 19v8h-1l-1 10h-1l-4-33z" fill="#C69065"/>
<path transform="translate(390,479)" d="m0 0h3l-2 5-11 11-5 1-2-2 5-5 8-6z" fill="#C0875C"/>
<path transform="translate(392,365)" d="m0 0 2 3 2 6v16l-4 3-1-14-3-2v-2l4-1z" fill="#CD986E"/>
<path transform="translate(1102,482)" d="m0 0h20l-1 2-2-1-2 4-3 3-6-2-4-2z" fill="#AD6C41"/>
<path transform="translate(379,570)" d="m0 0h2l-1 7-12 7-3-1 3-6z" fill="#CC976D"/>
<path transform="translate(384,372)" d="m0 0h2l-2 6-1 17h-5v-2l-4-1h5l1-16z" fill="#B77B50"/>
<path transform="translate(447,362)" d="m0 0 1 4-10 8-8 5h-2l1-4 16-12z" fill="#B77A4F"/>
<path transform="translate(407,625)" d="m0 0h1v11h2v-7h1v24h-4z" fill="#C48D62"/>
<path transform="translate(1332,438)" d="m0 0 10 1 5 2v2l-5 1-5 2-5-1v-3l-2-2z" fill="#C1895E"/>
<path transform="translate(320,373)" d="m0 0 2 1-1 8-3 9 2 2h-11v-1h6l2-16z" fill="#BB8055"/>
<path transform="translate(450,546)" d="m0 0h2v6l-9 6-4 4-3 1v-3z" fill="#FDFCFC"/>
<path transform="translate(464,531)" d="m0 0 4 2 1 13-8-1-2-1v-2l5-3 3-4-9-1v-2z" fill="#FEFEFE"/>
<path transform="translate(434,609)" d="m0 0h1l2 13 2-4 2 18-2 1-2-1-2-11z" fill="#C79066"/>
<path transform="translate(450,442)" d="m0 0 6 1-3 3-15 7h-3v-3z" fill="#BE845A"/>
<path transform="translate(383,392)" d="m0 0h4l3 1 3 4h-7l2 8-1 4-6-11-1-3h3z" fill="#BF865B"/>
<path transform="translate(441,354)" d="m0 0 3 1-3 5-10 7-4 1 1-4z" fill="#B6784E"/>
<path transform="translate(335,371)" d="m0 0h4v9l-2 9h-3v-10z" fill="#B4754B"/>
<path transform="translate(362,370)" d="m0 0h3l1 2v12l-2 4-4-1 2-12z" fill="#BA7F54"/>
<path transform="translate(405,301)" d="m0 0h34v8h-1v-7l-33 3h-6l4-3z" fill="#C79166"/>
<path transform="translate(541,482)" d="m0 0h3l-3 9-3 3-3-1v-6l3-4z" fill="#C38B60"/>
<path transform="translate(500,500)" d="m0 0 3 1v2l4-3h2l-1 3-8 6-4 1-1-6z" fill="#C0885D"/>
<path transform="translate(397,490)" d="m0 0 1 3-12 10h-4l2-4 9-7z" fill="#CA956B"/>
<path transform="translate(472,496)" d="m0 0 2 1-8 7-8 4h-2v-4z" fill="#B87C51"/>
<path transform="translate(1153,440)" d="m0 0h18l-1 4-9 1-5-3h-3z" fill="#BF865B"/>
<path transform="translate(255,618)" d="m0 0 3 1-2 17-3 3h-1l1-10z" fill="#B5784D"/>
<path transform="translate(445,615)" d="m0 0h3l1 7v8l-3 2-1-1-1-7v-8z" fill="#C58E63"/>
<path transform="translate(287,373)" d="m0 0 2 1v11l-1 6-3-1v-16z" fill="#B4774C"/>
<path transform="translate(199,598)" d="m0 0 2 1-2 4-8 8-5 2 2-4 7-8z" fill="#B6794F"/>
<path transform="translate(422,579)" d="m0 0h3l2 25-2-3-3-11z" fill="#B4764B"/>
<path transform="translate(356,468)" d="m0 0v3l-2 4-5 3h-5l1-4 7-5z" fill="#CD996F"/>
<path transform="translate(845,439)" d="m0 0h19v3l-11 1-6-1-2 4z" fill="#C38C61"/>
<path transform="translate(421,633)" d="m0 0h1v19h-4v-17l2 3z" fill="#C68F65"/>
<path transform="translate(1068,439)" d="m0 0h20l-1 4-3-1h-14l-1 12h-1z" fill="#C48C62"/>
<path transform="translate(776,440)" d="m0 0h20l-1 3-16 1-3 3z" fill="#BF865B"/>
<path transform="translate(473,537)" d="m0 0 6 4 3 5-1 5-7-6-1-5z" fill="#DAB596"/>
<path transform="translate(278,607)" d="m0 0 3 1-1 14-1 5-3-2 1-11z" fill="#BB8055"/>
<path transform="translate(196,612)" d="m0 0 1 4-7 10h-2l-1 3-1-7z" fill="#B27348"/>
<path transform="translate(934,482)" d="m0 0h8l7 2-1 3-9 1-5-5z" fill="#AD6C41"/>
<path transform="translate(474,480)" d="m0 0h2l-1 5-10 8-3 1 2-4 4-5z" fill="#BA7F54"/>
<path transform="translate(479,620)" d="m0 0h2l-1 4-8 8-6 4-4 2 6-7 5-5z" fill="#BE8459"/>
<path transform="translate(238,373)" d="m0 0 3 1-1 13-2 4h-2l1-17z" fill="#B77A50"/>
<path transform="translate(435,341)" d="m0 0h2l-1 5-10 6-4-1 10-8z" fill="#B77B50"/>
<path transform="translate(412,582)" d="m0 0 2 1-2 4-8 5h-5l1-3 8-5 3-1z" fill="#B77B50"/>
<path transform="translate(406,594)" d="m0 0 2 1v21h-1v-6h-2v-15z" fill="#B5784D"/>
<path transform="translate(376,443)" d="m0 0 3 1-1 5-8 6-2 1 1-4z" fill="#BC8156"/>
<path transform="translate(468,420)" d="m0 0h2l1 4-4 3-6 1-6 4h-2v-2l14-9z" fill="#B6794E"/>
<path transform="translate(444,392)" d="m0 0 2 1-1 4-8 4h-4l1-4z" fill="#BC8156"/>
<path transform="translate(269,615)" d="m0 0h2l-1 10-2 9-3-2 2-12z" fill="#BA7E54"/>
<path transform="translate(476,507)" d="m0 0h3v4l-9 4h-6l4-3z" fill="#DBB89C"/>
<path transform="translate(1007,440)" d="m0 0h20v8l-6-5-12-2-1 2z" fill="#BE855A"/>
<path transform="translate(439,564)" d="m0 0h1l1 10h-2l1 3v10h-1l-2-16-4-1 2-2h3z" fill="#C48D62"/>
<path transform="translate(255,373)" d="m0 0 4 1v14l-2 1-1-2-2-13z" fill="#B87C51"/>
<path transform="translate(374,413)" d="m0 0 1 3-5 10-1-2-3 1v-2l-3 1-1-2 6-2z" fill="#C1895E"/>
<path transform="translate(453,610)" d="m0 0h1l2 11 2-3 1 13-4 2v-7l-2-9z" fill="#C68F65"/>
<path transform="translate(403,524)" d="m0 0 2 1-1 4-9 7-3-1 5-6z" fill="#B77A4F"/>
<path transform="translate(277,374)" d="m0 0h3l-2 18-2-1v-15z" fill="#B4764B"/>
<path transform="translate(432,309)" d="m0 0 3 1-2 4-9 6-2-1 8-9z" fill="#BB7F55"/>
<path transform="translate(539,499)" d="m0 0h4v2l5-2-2 4-6 2h-4l-1-3z" fill="#C1895E"/>
<path transform="translate(473,469)" d="m0 0h2l-1 5-8 5-3-1 4-5z" fill="#C38B61"/>
<path transform="translate(184,585)" d="m0 0h1l1 13 2-1v5l-2 2v8 3l-2-1z" fill="#CB966C"/>
<path transform="translate(392,533)" d="m0 0 2 1-3 5-10 7-2-2z" fill="#BC8156"/>
<path transform="translate(445,499)" d="m0 0 3 1-1 3-8 3h-5l1-3z" fill="#B77A4F"/>
<path transform="translate(451,373)" d="m0 0 4 1-1 3-9 6h-2l2-4 5-5z" fill="#B5774C"/>
<path transform="translate(418,623)" d="m0 0 3 2v17l-2-4-1-3z" fill="#AF6F44"/>
<path transform="translate(349,419)" d="m0 0h6l-6 7-5 2 2-6z" fill="#BA7F54"/>
<path transform="translate(460,396)" d="m0 0h3v3l-14 7v-3z" fill="#BB8055"/>
<path transform="translate(437,562)" d="m0 0h3l-1 8-1-2-4 2-1 2-4-1 5-5z" fill="#AF6E43"/>
<path transform="translate(467,642)" d="m0 0h6l-1 2-12 3h-5l1-3z" fill="#C38B60"/>
<path transform="translate(337,385)" d="m0 0h1v7l3 2h-15l4-2h2l1-6 1 3h3z" fill="#CA956A"/>
<path transform="translate(354,374)" d="m0 0h3v10l-2 4-2-1z" fill="#BB8056"/>
<path transform="translate(266,374)" d="m0 0h2v13l-3 2v-12z" fill="#B4764B"/>
<path transform="translate(367,454)" d="m0 0 1 3-10 11-4 2 2-4 10-10z" fill="#C58E63"/>
<path transform="translate(249,645)" d="m0 0 3 4-1 6-3 1-2 2 1-7z" fill="#C28A5F"/>
<path transform="translate(390,479)" d="m0 0h3l-2 5-5 4-2-3z" fill="#C79066"/>
<path transform="translate(473,443)" d="m0 0 1 4-6 4-4-1 5-5z" fill="#BA7E53"/>
<path transform="translate(432,332)" d="m0 0h2l-1 4-5 4-3-1v-3z" fill="#B6784D"/>
<path transform="translate(464,531)" d="m0 0 4 2-1 4v-2l-9-1v-2zm2 6m-1 1m-1 1m-1 1 2 1-1 3z" fill="#F8F2ED"/>
<path transform="translate(433,561)" d="m0 0 4 2-5 5h-3l1-4z" fill="#CB966C"/>
<path transform="translate(463,476)" d="m0 0 2 1-1 3-7 4h-2l1-4z" fill="#C69065"/>
<path transform="translate(383,392)" d="m0 0h4l3 1 3 4h-7l-1 3-1-5z" fill="#C99369"/>
<path transform="translate(459,529)" d="m0 0h7l2 4-4-1h-6l-1 2-1-4z" fill="#CA946A"/>
<path transform="translate(445,421)" d="m0 0h2l-2 4-7 2v-3l2-2z" fill="#C2895F"/>
<path transform="translate(208,373)" d="m0 0h5v6l-1-2-6 2 1-5z" fill="#C1885D"/>
<path transform="translate(285,620)" d="m0 0h3l-1 9-3 1z" fill="#B97D53"/>
<path transform="translate(255,618)" d="m0 0 3 1-1 11-3-2z" fill="#B97D53"/>
<path transform="translate(261,646)" d="m0 0 2 3-2 7h-2l-1 2-1-3z" fill="#BF865B"/>
<path transform="translate(435,610)" d="m0 0 3 1v12l-2-1z" fill="#B27348"/>
<path transform="translate(473,455)" d="m0 0h2v4h-2v2h-6l1-3z" fill="#BE8459"/>
<path transform="translate(430,328)" d="m0 0h2l1 4-5 4-2-1 2-4h-2l1-2z" fill="#CB966C"/>
<path transform="translate(383,601)" d="m0 0 2 1-4 5-5 3-4 2 1-3z" fill="#C58E64"/>
<path transform="translate(438,448)" d="m0 0 7 1-4 3-6 1v-3z" fill="#C89268"/>
<path transform="translate(1133,439)" d="m0 0h8l5 2v2l-9-1z" fill="#C28B60"/>
<path transform="translate(1044,439)" d="m0 0h12v3l-13-1z" fill="#C1885E"/>
<path transform="translate(239,643)" d="m0 0 2 1-1 6-3 1-2 2 1-7z" fill="#C1895E"/>
<path transform="translate(379,491)" d="m0 0h3l-2 4-5 1-2-2 2-2z" fill="#C79066"/>
<path transform="translate(264,386)" d="m0 0 2 2 2-1v7l-5-1z" fill="#C1895F"/>
</svg>
